<svg width="30" height="23" viewBox="0 0 30 23" fill="none" xmlns="http://www.w3.org/2000/svg">
<path d="M13.0414 22.435C13.5923 22.6288 14.184 22.2258 14.184 21.6443V2.39361C14.184 2.17937 14.1023 1.96514 13.9289 1.83251C12.9291 1.03678 10.6337 0.0166016 7.65484 0.0166016C5.07889 0.0166016 2.67128 0.695018 1.23283 1.24591C0.65643 1.47035 0.30957 2.04165 0.30957 2.65886V21.5474C0.30957 22.1544 0.962483 22.5778 1.53888 22.3891C3.14566 21.8535 5.691 21.2363 7.65484 21.2363C9.38403 21.2363 11.6845 21.9504 13.0414 22.435ZM16.9588 22.435C18.3157 21.9504 20.6162 21.2363 22.3454 21.2363C24.3092 21.2363 26.8545 21.8535 28.4613 22.3891C29.0377 22.5829 29.6906 22.1544 29.6906 21.5474V2.65886C29.6906 2.04165 29.3438 1.47035 28.7674 1.25101C27.3289 0.695018 24.9213 0.0166016 22.3454 0.0166016C19.3665 0.0166016 17.0711 1.03678 16.0713 1.83251C15.903 1.96514 15.8162 2.17937 15.8162 2.39361V21.6443C15.8162 22.2258 16.413 22.6288 16.9588 22.435Z" fill="white"/>
</svg>
