<svg width="119" height="23" viewBox="0 0 119 23" fill="none" xmlns="http://www.w3.org/2000/svg">
<path d="M18.4944 0.640625H11.6583L10.4291 3.0732H18.8707L18.4944 0.640625ZM1.78685 20.2081L0.557617 22.6406H6.73514L7.88911 20.2081H1.78685ZM20.4323 13.2121H14.8631L15.0136 14.6263H10.5608L11.2381 13.2121H5.31776L3.37356 17.0652H21.0218L20.4323 13.2121ZM21.5047 20.2081H15.6283L15.8917 22.6406H21.881L21.5047 20.2081ZM19.3536 6.21605H8.84239L6.8982 10.0692H12.7433L14.1983 7.02062L14.5245 10.0692H19.9431L19.3536 6.21605Z" fill="#DE1A1A"/>
<path d="M42.7719 6.21605H36.4188C36.5379 6.29777 36.6383 6.39834 36.7323 6.51777C37.0961 6.97663 37.2153 7.57377 37.0898 8.3092C36.9644 9.02577 36.6696 9.61034 36.1993 10.0692H42.3015C42.4708 9.59148 42.6088 9.08863 42.7029 8.56063C42.8534 7.73091 42.8785 6.95148 42.7719 6.21605ZM41.2604 2.96634C39.8995 1.41377 38.1372 0.640625 35.9609 0.640625H27.35L26.9236 3.0732H41.3482C41.3231 3.03548 41.2918 3.00405 41.2604 2.96634ZM26.3717 6.21605L25.6943 10.0692H31.2949L31.9722 6.21605H26.3717ZM40.0312 20.2081H34.4181L35.3024 22.6406H40.9469L40.0312 20.2081ZM23.9069 20.2081L23.4805 22.6406H29.0873L29.5137 20.2081H23.9069ZM40.1754 13.2121H25.1362L24.4588 17.0652H30.0656L30.3353 15.5189L32.7248 15.5378L33.2767 17.0652H38.8459L37.9365 14.6578C38.7832 14.2806 39.5295 13.8029 40.1754 13.2121Z" fill="#DE1A1A"/>
<path d="M44.7537 0.640625L44.3335 3.0732H60.7713L61.2041 0.640625H44.7537ZM47.9773 13.2121L47.2937 17.0652H52.9005L53.5778 13.2121H47.9773ZM46.7418 20.2081L46.309 22.6406H51.9158L52.3423 20.2081H46.7418ZM49.2128 6.21605L48.5292 10.0692H54.136L54.8133 6.21605H49.2128Z" fill="#DE1A1A"/>
<path d="M75.0141 0.640625L74.5876 3.0732H80.1881L80.6146 0.640625H75.0141ZM59.8117 20.2081L59.3853 22.6406H64.9921L65.4185 20.2081H59.8117ZM74.042 6.21605L73.5904 8.78063H67.4254L67.877 6.21605H62.2765L61.5991 10.0692H78.9714L79.6425 6.21605H74.042ZM60.3636 17.0652H65.9704L66.4784 14.1863H72.6497L72.1479 17.0652H77.7547L78.4258 13.2121H61.041L60.3636 17.0652ZM71.6023 20.2081L71.1758 22.6406H76.7826L77.2091 20.2081H71.6023ZM63.2548 0.640625L62.8284 3.0732H68.4289L68.8554 0.640625H63.2548Z" fill="#DE1A1A"/>
<path d="M84.0953 0.640625L83.6688 3.0732H97.6106L98.0496 0.640625H84.0953ZM88.2346 8.9692L88.7363 6.21605H83.1169L82.4396 10.0692H95.6225L95.8232 8.9692H88.2346ZM80.6647 20.2081L80.2383 22.6406H94.3494L94.7696 20.2081H80.6647ZM81.894 13.2121L81.2166 17.0652H86.8423L87.3565 14.1235H94.8824L95.0518 13.2121H81.894Z" fill="#DE1A1A"/>
<path d="M105.644 0.640625H99.5547L100.583 3.0732H106.673L105.644 0.640625ZM101.919 6.21605L103.55 10.0692H111.452L114.356 6.21605H101.919ZM112.035 0.640625L110.204 3.0732H116.726L118.558 0.640625H112.035ZM113.898 20.2081H107.839L108.868 22.6406H114.92L113.898 20.2081ZM97.2781 20.2081L95.4468 22.6406H101.969L103.801 20.2081H97.2781ZM110.95 13.2121H102.559L99.6487 17.0652H106.171L106.391 16.7761L106.51 17.0652H112.574L110.95 13.2121Z" fill="#DE1A1A"/>
</svg>
