<svg width="118" height="23" viewBox="0 0 118 23" fill="none" xmlns="http://www.w3.org/2000/svg">
<path d="M17.9309 0.141602H11.0949L9.86563 2.57417H18.3072L17.9309 0.141602ZM1.22337 19.709L-0.00585938 22.1416H6.17166L7.32563 19.709H1.22337ZM19.8688 12.713H14.2996L14.4502 14.1273H9.99733L10.6747 12.713H4.75428L2.81009 16.5662H20.4583L19.8688 12.713ZM20.9413 19.709H15.0648L15.3282 22.1416H21.3176L20.9413 19.709ZM18.7901 5.71703H8.27891L6.33472 9.57017H12.1798L13.6349 6.5216L13.961 9.57017H19.3796L18.7901 5.71703Z" fill="#03E822"/>
<path d="M42.2082 5.71703H35.8551C35.9743 5.79874 36.0746 5.89932 36.1687 6.01874C36.5324 6.4776 36.6516 7.07474 36.5262 7.81017C36.4007 8.52674 36.106 9.11132 35.6356 9.57017H41.7379C41.9072 9.09246 42.0452 8.5896 42.1392 8.0616C42.2898 7.23189 42.3148 6.45246 42.2082 5.71703ZM40.6968 2.46732C39.3358 0.914744 37.5735 0.141602 35.3973 0.141602H26.7864L26.3599 2.57417H40.7846C40.7595 2.53646 40.7281 2.50503 40.6968 2.46732ZM25.808 5.71703L25.1307 9.57017H30.7312L31.4085 5.71703H25.808ZM39.4675 19.709H33.8545L34.7388 22.1416H40.3832L39.4675 19.709ZM23.3433 19.709L22.9168 22.1416H28.5236L28.9501 19.709H23.3433ZM39.6118 12.713H24.5725L23.8952 16.5662H29.502L29.7717 15.0199L32.1611 15.0387L32.713 16.5662H38.2822L37.3728 14.1587C38.2195 13.7816 38.9658 13.3039 39.6118 12.713Z" fill="#03E822"/>
<path d="M44.19 0.141602L43.7698 2.57417H60.2077L60.6404 0.141602H44.19ZM47.4136 12.713L46.73 16.5662H52.3368L53.0142 12.713H47.4136ZM46.1781 19.709L45.7454 22.1416H51.3522L51.7787 19.709H46.1781ZM48.6491 5.71703L47.9655 9.57017H53.5723L54.2497 5.71703H48.6491Z" fill="#03E822"/>
<path d="M74.4505 0.141602L74.024 2.57417H79.6245L80.051 0.141602H74.4505ZM59.2481 19.709L58.8217 22.1416H64.4285L64.8549 19.709H59.2481ZM73.4784 5.71703L73.0268 8.2816H66.8618L67.3134 5.71703H61.7129L61.0355 9.57017H78.4078L79.0789 5.71703H73.4784ZM59.8 16.5662H65.4068L65.9148 13.6873H72.0861L71.5843 16.5662H77.1911L77.8622 12.713H60.4774L59.8 16.5662ZM71.0387 19.709L70.6122 22.1416H76.219L76.6455 19.709H71.0387ZM62.6912 0.141602L62.2648 2.57417H67.8653L68.2918 0.141602H62.6912Z" fill="#03E822"/>
<path d="M83.5317 0.141602L83.1052 2.57417H97.047L97.486 0.141602H83.5317ZM87.671 8.47017L88.1727 5.71703H82.5533L81.876 9.57017H95.0589L95.2596 8.47017H87.671ZM80.1012 19.709L79.6747 22.1416H93.7858L94.206 19.709H80.1012ZM81.3304 12.713L80.653 16.5662H86.2787L86.7929 13.6245H94.3188L94.4882 12.713H81.3304Z" fill="#03E822"/>
<path d="M105.081 0.141602H98.9912L100.02 2.57417H106.109L105.081 0.141602ZM101.356 5.71703L102.986 9.57017H110.888L113.792 5.71703H101.356ZM111.472 0.141602L109.64 2.57417H116.163L117.994 0.141602H111.472ZM113.334 19.709H107.276L108.305 22.1416H114.357L113.334 19.709ZM96.7146 19.709L94.8833 22.1416H101.406L103.237 19.709H96.7146ZM110.387 12.713H101.995L99.0853 16.5662H105.608L105.827 16.277L105.946 16.5662H112.011L110.387 12.713Z" fill="#03E822"/>
</svg>
